# xmcd
#
# Track frame offsets: 
#        150
#        17842
#        36604
#        51123
#        71790
#        83245
#        101322
#        118737
#        132195
#        151209
#        165476
#        166110
#        185817
#        202068
#        202516
#
# Disc length: 2927 seconds
#
# Revision: 0
# Processed by: cddbd v1.5.2PL0 Copyright (c) Steve Scherf et al.
# Submitted via: ExactAudioCopyFreeDBPlugin 1.0
#
DISCID=c90b6d0f
DTITLE=Nancy Apple - Shine
DYEAR=2010
DGENRE=Country
TTITLE0=Creole Boy With A Spanish Guitar
TTITLE1=Voodoo Woman
TTITLE2=Blue
TTITLE3=Rockin' Granny
TTITLE4=Elvis Loved His Mama
TTITLE5=Hard Luck 'N' Old Dogs
TTITLE6=Cathead Biscuits And Gravy
TTITLE7=Let's Have A Party
TTITLE8=Table For Two (Dinner For One)
TTITLE9=B.I.G.T.I.M.E.
TTITLE10=We Rollin? Crap
TTITLE11=Sun Will Always Shine
TTITLE12=That's When It Hits Me
TTITLE13=Nice Mistakes
TTITLE14=Moonlight Over Memphis
EXTD=
EXTT0=
EXTT1=
EXTT2=
EXTT3=
EXTT4=
EXTT5=
EXTT6=
EXTT7=
EXTT8=
EXTT9=
EXTT10=
EXTT11=
EXTT12=
EXTT13=
EXTT14=
PLAYORDER=
